<?xml version="1.0" encoding="UTF-8"?>
<svg width="1024" height="1024" viewBox="0 0 1024 1024" xmlns="http://www.w3.org/2000/svg" role="img" aria-label="Person going to toilet icon">
  <path d="M 648.90 631.48 L 647.90 644.52 L 652.91 671.60 L 661.94 691.66 L 670.97 704.70 L 686.01 719.74 L 699.05 728.77 L 734.15 743.81 L 715.10 836.08 L 715.10 844.11 L 720.11 851.13 L 724.12 853.13 L 894.62 853.13 L 901.64 849.12 L 904.65 838.09 L 882.59 726.76 L 906.66 706.70 L 927.72 678.62 L 937.75 651.54 L 938.75 632.49 L 936.74 628.48 L 658.93 627.47 L 651.91 628.48 Z M 590.73 650.54 L 541.59 599.39 L 534.57 597.38 L 524.54 603.40 L 523.53 612.43 L 547.60 638.50 L 546.60 641.51 L 435.28 641.51 L 428.25 645.52 L 425.25 655.55 L 427.25 660.57 L 434.27 665.58 L 547.60 665.58 L 548.61 668.59 L 523.53 695.67 L 523.53 701.69 L 528.55 708.71 L 539.58 709.71 L 587.72 662.57 Z M 643.89 598.39 L 643.89 607.41 L 651.91 615.44 L 875.57 614.43 L 874.56 593.37 L 868.54 586.35 L 861.52 583.34 L 658.93 583.34 L 648.90 588.36 Z M 839.46 422.87 L 839.46 570.30 L 862.53 570.30 L 878.57 578.33 L 887.60 592.37 L 889.61 615.44 L 959.81 615.44 L 967.84 612.43 L 974.86 602.40 L 974.86 422.87 Z M 831.44 387.77 L 831.44 404.82 L 836.45 409.83 L 977.86 409.83 L 982.88 403.82 L 981.88 384.76 L 975.86 377.74 L 967.84 374.73 L 846.48 374.73 L 838.46 377.74 Z M 294.86 315.56 L 271.80 309.54 L 255.75 310.54 L 239.70 315.56 L 122.36 393.79 L 107.31 408.83 L 73.21 523.17 L 74.22 534.20 L 79.23 543.23 L 86.25 549.24 L 97.29 553.25 L 112.33 551.25 L 124.36 541.22 L 154.45 441.93 L 195.57 413.85 L 198.58 414.85 L 167.49 530.19 L 167.49 561.28 L 136.40 680.63 L 46.14 800.98 L 41.12 812.01 L 40.12 824.05 L 43.13 835.08 L 57.17 850.12 L 77.23 854.14 L 95.28 847.12 L 196.58 720.75 L 204.60 705.70 L 226.66 627.47 L 233.68 632.49 L 294.86 708.71 L 342.00 837.09 L 347.02 845.11 L 362.06 856.14 L 376.10 858.15 L 393.15 852.13 L 405.19 838.09 L 408.20 827.06 L 407.19 815.02 L 361.06 677.62 L 287.84 565.29 L 286.84 560.28 L 314.92 458.98 L 318.93 460.98 L 331.97 488.06 L 340.00 497.09 L 436.28 543.23 L 448.31 544.23 L 463.36 537.21 L 470.38 527.18 L 472.38 513.14 L 468.37 502.10 L 459.35 493.08 L 373.09 451.96 L 335.98 373.73 L 333.98 361.69 L 325.95 342.64 L 310.91 325.59 Z M 301.88 166.12 L 279.82 174.14 L 262.77 188.19 L 248.73 214.26 L 246.72 239.33 L 255.75 265.41 L 272.80 284.47 L 294.86 295.50 L 322.95 297.51 L 348.02 288.48 L 366.07 272.43 L 375.10 257.39 L 379.11 244.35 L 379.11 219.28 L 369.08 195.21 L 353.03 178.16 L 329.97 167.12 Z" fill="#000000" fill-rule="evenodd"/>
</svg>
