<?xml version="1.0" encoding="UTF-8"?>
<svg width="1024" height="1024" viewBox="0 0 1024 1024" xmlns="http://www.w3.org/2000/svg" role="img" aria-label="Buy beer icon">
  <path d="M 259.66 957.35 L 260.87 965.83 L 270.56 974.31 L 548.07 974.31 L 558.98 964.62 L 557.77 951.29 L 548.07 944.02 L 270.56 944.02 L 262.08 951.29 Z M 299.65 64.23 L 279.05 77.56 L 256.02 100.58 L 245.11 116.34 L 231.78 146.63 L 197.85 155.11 L 183.31 163.60 L 165.13 179.35 L 150.59 199.95 L 139.69 230.25 L 138.47 256.91 L 145.74 287.20 L 159.07 310.23 L 180.89 329.62 L 180.89 803.45 L 184.52 822.84 L 191.79 839.80 L 201.49 854.34 L 217.24 870.10 L 240.27 883.43 L 263.29 889.49 L 569.89 889.49 L 579.58 904.03 L 608.67 931.90 L 642.60 951.29 L 678.95 962.20 L 704.40 964.62 L 733.48 962.20 L 764.99 953.71 L 788.02 942.81 L 819.52 919.78 L 838.91 897.97 L 857.09 866.46 L 869.21 826.47 L 870.42 782.84 L 864.36 752.55 L 851.03 721.04 L 828.01 687.11 L 848.61 674.99 L 870.42 651.97 L 880.12 632.58 L 884.96 610.76 L 884.96 424.14 L 880.12 402.33 L 872.84 387.79 L 852.24 363.55 L 820.74 346.58 L 798.92 342.95 L 701.98 341.74 L 701.98 307.81 L 717.73 283.57 L 725.00 254.49 L 723.79 226.61 L 716.52 202.38 L 701.98 179.35 L 685.01 163.60 L 663.20 151.48 L 645.02 146.63 L 629.27 119.97 L 602.61 96.95 L 571.10 83.62 L 528.68 81.19 L 504.45 87.25 L 475.36 101.79 L 455.97 81.19 L 435.37 66.65 L 403.87 53.32 L 374.78 48.47 L 332.37 52.11 Z M 686.22 668.93 L 717.73 667.72 L 734.70 670.14 L 757.72 677.42 L 780.75 689.53 L 811.04 717.41 L 821.95 733.16 L 831.64 753.76 L 838.91 782.84 L 836.49 830.11 L 826.80 857.98 L 814.68 878.58 L 791.65 902.82 L 775.90 913.72 L 750.45 925.84 L 725.00 931.90 L 688.65 931.90 L 670.47 928.27 L 651.08 920.99 L 628.05 907.66 L 602.61 883.43 L 591.70 867.67 L 580.79 844.65 L 574.73 821.62 L 573.52 787.69 L 577.16 768.30 L 583.22 750.13 L 601.39 718.62 L 623.21 696.80 L 638.96 685.90 L 655.93 677.42 Z M 701.98 701.65 L 693.49 710.13 L 693.49 719.83 L 674.10 729.52 L 660.77 742.85 L 654.71 758.61 L 654.71 775.57 L 661.99 792.54 L 676.53 805.87 L 691.07 811.93 L 714.09 814.35 L 725.00 819.20 L 731.06 827.68 L 731.06 837.38 L 725.00 847.07 L 712.88 851.92 L 698.34 851.92 L 686.22 848.28 L 674.10 839.80 L 664.41 839.80 L 657.14 845.86 L 655.93 856.77 L 666.83 868.89 L 692.28 878.58 L 695.92 894.33 L 703.19 899.18 L 709.25 899.18 L 718.94 891.91 L 721.37 878.58 L 740.76 870.10 L 750.45 860.40 L 757.72 845.86 L 758.93 826.47 L 751.66 807.08 L 740.76 796.18 L 727.42 788.90 L 695.92 784.06 L 687.43 779.21 L 682.59 771.94 L 681.38 765.88 L 685.01 757.40 L 698.34 748.91 L 720.15 750.13 L 737.12 759.82 L 745.60 759.82 L 754.09 752.55 L 755.30 744.07 L 748.03 733.16 L 732.27 724.68 L 721.37 722.25 L 717.73 706.50 L 711.67 701.65 Z M 703.19 374.46 L 809.83 375.67 L 828.01 384.15 L 843.76 399.91 L 849.82 410.81 L 853.46 424.14 L 853.46 611.98 L 842.55 637.42 L 829.22 650.76 L 815.89 658.03 L 791.65 660.45 L 751.66 642.27 L 701.98 635.00 Z M 669.26 334.47 L 670.47 639.85 L 641.38 649.54 L 606.24 670.14 L 582.00 693.17 L 561.40 723.47 L 549.29 752.55 L 543.23 781.63 L 544.44 826.47 L 552.92 856.77 L 266.93 857.98 L 252.39 854.34 L 235.42 844.65 L 219.67 826.47 L 212.40 805.87 L 212.40 342.95 L 338.43 341.74 L 354.18 345.37 L 366.30 355.07 L 372.36 365.97 L 378.42 396.27 L 389.32 420.51 L 402.65 433.84 L 417.20 442.32 L 435.37 447.17 L 451.13 447.17 L 476.58 439.90 L 499.60 419.29 L 509.29 395.06 L 511.72 356.28 L 520.20 345.37 L 533.53 341.74 L 636.54 342.95 Z M 437.80 496.85 L 431.74 499.28 L 425.68 506.55 L 425.68 753.76 L 431.74 761.03 L 443.86 763.46 L 453.55 756.18 L 455.97 750.13 L 455.97 510.18 L 448.70 499.28 Z M 575.95 464.13 L 566.25 465.34 L 560.19 471.40 L 557.77 478.67 L 557.77 682.26 L 588.06 653.18 L 588.06 473.83 L 582.00 466.56 Z M 304.49 464.13 L 293.59 471.40 L 291.16 478.67 L 291.16 748.91 L 298.44 761.03 L 310.55 763.46 L 317.82 759.82 L 322.67 751.34 L 322.67 476.25 L 317.82 467.77 Z M 169.98 236.31 L 176.04 216.92 L 195.43 192.68 L 213.61 181.78 L 233.00 176.93 L 248.75 176.93 L 258.44 169.66 L 270.56 134.51 L 282.68 117.55 L 299.65 101.79 L 336.00 83.62 L 373.57 79.98 L 399.02 84.83 L 424.47 96.95 L 451.13 121.18 L 462.03 136.94 L 471.73 140.57 L 481.42 138.15 L 506.87 119.97 L 531.11 112.70 L 556.56 112.70 L 584.43 122.40 L 607.45 143.00 L 619.57 169.66 L 625.63 175.72 L 654.71 181.78 L 676.53 197.53 L 691.07 221.77 L 694.71 249.64 L 689.86 270.24 L 682.59 283.57 L 670.47 296.90 L 655.93 306.59 L 638.96 311.44 L 534.74 310.23 L 515.35 312.65 L 499.60 318.71 L 489.91 329.62 L 482.63 347.80 L 480.21 385.36 L 474.15 401.12 L 465.67 409.60 L 455.97 414.45 L 435.37 415.66 L 425.68 412.02 L 413.56 401.12 L 400.23 352.64 L 390.53 334.47 L 377.20 321.14 L 361.45 313.87 L 346.91 311.44 L 223.30 311.44 L 201.49 305.38 L 182.10 288.42 L 173.62 272.66 L 169.98 260.54 Z" fill="#000000" fill-rule="evenodd"/>
</svg>
